<svg id="svg2" xmlns:rdf="http://www.w3.org/1999/02/22-rdf-syntax-ns#" xmlns="http://www.w3.org/2000/svg" height="100%" width="100%" version="1.1" xmlns:cc="http://creativecommons.org/ns#" xmlns:dc="http://purl.org/dc/elements/1.1/" viewBox="0 0 32 32">
	<metadata id="metadata14">
		<rdf:RDF>
			<cc:Work rdf:about="">
				<dc:format>image/svg+xml</dc:format>
				<dc:type rdf:resource="http://purl.org/dc/dcmitype/StillImage" />
				<dc:title/>
			</cc:Work>
		</rdf:RDF>
	</metadata>
	<line x1="16" y1="0" x2="16" y2="32" stroke="black" stroke-width="1px"></line>
	<line x1="0" y1="16" x2="32" y2="16" stroke="black" stroke-width="1px"></line>
	<circle cx="16" cy="16" r="14" stroke="teal" stroke-width="1.5" fill="white"></circle>
	<text x="16" y="4" font-size="1.5" text-anchor="middle">0</text>
	<text x="16" y="4" font-size="1.5" text-anchor="middle" transform="rotate(90 16 16)">90</text>
	<text x="16" y="4" font-size="1.5" text-anchor="middle" transform="rotate(180 16 16)">180</text>
	<text x="16" y="4" font-size="1.5" text-anchor="middle" transform="rotate(270 16 16)">270</text>

	<path id="needle" fill="red" d="m16,5s4,8.79,4,11-1.7909,4-4,4-4-1.79-4-4,4-11,4-11zm2,11c0-1.1046-0.89543-2-2-2s-2,0.89543-2,2,0.89543,2,2,2,2-0.89543,2-2z" />
</svg>
