<svg id="svg2" xmlns:rdf="http://www.w3.org/1999/02/22-rdf-syntax-ns#" xmlns="http://www.w3.org/2000/svg" height="100%" width="100%" version="1.1" xmlns:cc="http://creativecommons.org/ns#" xmlns:dc="http://purl.org/dc/elements/1.1/" viewBox="0 0 32 32">
	<metadata id="metadata14">
		<rdf:RDF>
			<cc:Work rdf:about="">
				<dc:format>image/svg+xml</dc:format>
				<dc:type rdf:resource="http://purl.org/dc/dcmitype/StillImage" />
				<dc:title/>
			</cc:Work>
		</rdf:RDF>
	</metadata>
	<g id="compass" transform="rotate(0 16 16)">
		<g stroke="black" stroke-width="0.05">
			<line x1="16" y1="2" x2="16" y2="30" transform="rotate(1 16 16)"></line>
			<line x1="16" y1="2" x2="16" y2="30" transform="rotate(2 16 16)"></line>
			<line x1="16" y1="2" x2="16" y2="30" transform="rotate(3 16 16)"></line>
			<line x1="16" y1="2" x2="16" y2="30" transform="rotate(4 16 16)"></line>
			<line x1="16" y1="2" x2="16" y2="30" transform="rotate(6 16 16)"></line>
			<line x1="16" y1="2" x2="16" y2="30" transform="rotate(7 16 16)"></line>
			<line x1="16" y1="2" x2="16" y2="30" transform="rotate(8 16 16)"></line>
			<line x1="16" y1="2" x2="16" y2="30" transform="rotate(9 16 16)"></line>
			<line x1="16" y1="2" x2="16" y2="30" transform="rotate(11 16 16)"></line>
			<line x1="16" y1="2" x2="16" y2="30" transform="rotate(12 16 16)"></line>
			<line x1="16" y1="2" x2="16" y2="30" transform="rotate(13 16 16)"></line>
			<line x1="16" y1="2" x2="16" y2="30" transform="rotate(14 16 16)"></line>
			<line x1="16" y1="2" x2="16" y2="30" transform="rotate(16 16 16)"></line>
			<line x1="16" y1="2" x2="16" y2="30" transform="rotate(17 16 16)"></line>
			<line x1="16" y1="2" x2="16" y2="30" transform="rotate(18 16 16)"></line>
			<line x1="16" y1="2" x2="16" y2="30" transform="rotate(19 16 16)"></line>
			<line x1="16" y1="2" x2="16" y2="30" transform="rotate(21 16 16)"></line>
			<line x1="16" y1="2" x2="16" y2="30" transform="rotate(22 16 16)"></line>
			<line x1="16" y1="2" x2="16" y2="30" transform="rotate(23 16 16)"></line>
			<line x1="16" y1="2" x2="16" y2="30" transform="rotate(24 16 16)"></line>
			<line x1="16" y1="2" x2="16" y2="30" transform="rotate(26 16 16)"></line>
			<line x1="16" y1="2" x2="16" y2="30" transform="rotate(27 16 16)"></line>
			<line x1="16" y1="2" x2="16" y2="30" transform="rotate(28 16 16)"></line>
			<line x1="16" y1="2" x2="16" y2="30" transform="rotate(29 16 16)"></line>
			<line x1="16" y1="2" x2="16" y2="30" transform="rotate(31 16 16)"></line>
			<line x1="16" y1="2" x2="16" y2="30" transform="rotate(32 16 16)"></line>
			<line x1="16" y1="2" x2="16" y2="30" transform="rotate(33 16 16)"></line>
			<line x1="16" y1="2" x2="16" y2="30" transform="rotate(34 16 16)"></line>
			<line x1="16" y1="2" x2="16" y2="30" transform="rotate(36 16 16)"></line>
			<line x1="16" y1="2" x2="16" y2="30" transform="rotate(37 16 16)"></line>
			<line x1="16" y1="2" x2="16" y2="30" transform="rotate(38 16 16)"></line>
			<line x1="16" y1="2" x2="16" y2="30" transform="rotate(39 16 16)"></line>
			<line x1="16" y1="2" x2="16" y2="30" transform="rotate(41 16 16)"></line>
			<line x1="16" y1="2" x2="16" y2="30" transform="rotate(42 16 16)"></line>
			<line x1="16" y1="2" x2="16" y2="30" transform="rotate(43 16 16)"></line>
			<line x1="16" y1="2" x2="16" y2="30" transform="rotate(44 16 16)"></line>
			<line x1="16" y1="2" x2="16" y2="30" transform="rotate(46 16 16)"></line>
			<line x1="16" y1="2" x2="16" y2="30" transform="rotate(47 16 16)"></line>
			<line x1="16" y1="2" x2="16" y2="30" transform="rotate(48 16 16)"></line>
			<line x1="16" y1="2" x2="16" y2="30" transform="rotate(49 16 16)"></line>
			<line x1="16" y1="2" x2="16" y2="30" transform="rotate(51 16 16)"></line>
			<line x1="16" y1="2" x2="16" y2="30" transform="rotate(52 16 16)"></line>
			<line x1="16" y1="2" x2="16" y2="30" transform="rotate(53 16 16)"></line>
			<line x1="16" y1="2" x2="16" y2="30" transform="rotate(54 16 16)"></line>
			<line x1="16" y1="2" x2="16" y2="30" transform="rotate(56 16 16)"></line>
			<line x1="16" y1="2" x2="16" y2="30" transform="rotate(57 16 16)"></line>
			<line x1="16" y1="2" x2="16" y2="30" transform="rotate(58 16 16)"></line>
			<line x1="16" y1="2" x2="16" y2="30" transform="rotate(59 16 16)"></line>
			<line x1="16" y1="2" x2="16" y2="30" transform="rotate(61 16 16)"></line>
			<line x1="16" y1="2" x2="16" y2="30" transform="rotate(62 16 16)"></line>
			<line x1="16" y1="2" x2="16" y2="30" transform="rotate(63 16 16)"></line>
			<line x1="16" y1="2" x2="16" y2="30" transform="rotate(64 16 16)"></line>
			<line x1="16" y1="2" x2="16" y2="30" transform="rotate(66 16 16)"></line>
			<line x1="16" y1="2" x2="16" y2="30" transform="rotate(67 16 16)"></line>
			<line x1="16" y1="2" x2="16" y2="30" transform="rotate(68 16 16)"></line>
			<line x1="16" y1="2" x2="16" y2="30" transform="rotate(69 16 16)"></line>
			<line x1="16" y1="2" x2="16" y2="30" transform="rotate(71 16 16)"></line>
			<line x1="16" y1="2" x2="16" y2="30" transform="rotate(72 16 16)"></line>
			<line x1="16" y1="2" x2="16" y2="30" transform="rotate(73 16 16)"></line>
			<line x1="16" y1="2" x2="16" y2="30" transform="rotate(74 16 16)"></line>
			<line x1="16" y1="2" x2="16" y2="30" transform="rotate(76 16 16)"></line>
			<line x1="16" y1="2" x2="16" y2="30" transform="rotate(77 16 16)"></line>
			<line x1="16" y1="2" x2="16" y2="30" transform="rotate(78 16 16)"></line>
			<line x1="16" y1="2" x2="16" y2="30" transform="rotate(79 16 16)"></line>
			<line x1="16" y1="2" x2="16" y2="30" transform="rotate(81 16 16)"></line>
			<line x1="16" y1="2" x2="16" y2="30" transform="rotate(82 16 16)"></line>
			<line x1="16" y1="2" x2="16" y2="30" transform="rotate(83 16 16)"></line>
			<line x1="16" y1="2" x2="16" y2="30" transform="rotate(84 16 16)"></line>
			<line x1="16" y1="2" x2="16" y2="30" transform="rotate(86 16 16)"></line>
			<line x1="16" y1="2" x2="16" y2="30" transform="rotate(87 16 16)"></line>
			<line x1="16" y1="2" x2="16" y2="30" transform="rotate(88 16 16)"></line>
			<line x1="16" y1="2" x2="16" y2="30" transform="rotate(89 16 16)"></line>
			<line x1="16" y1="2" x2="16" y2="30" transform="rotate(91 16 16)"></line>
			<line x1="16" y1="2" x2="16" y2="30" transform="rotate(92 16 16)"></line>
			<line x1="16" y1="2" x2="16" y2="30" transform="rotate(93 16 16)"></line>
			<line x1="16" y1="2" x2="16" y2="30" transform="rotate(94 16 16)"></line>
			<line x1="16" y1="2" x2="16" y2="30" transform="rotate(96 16 16)"></line>
			<line x1="16" y1="2" x2="16" y2="30" transform="rotate(97 16 16)"></line>
			<line x1="16" y1="2" x2="16" y2="30" transform="rotate(98 16 16)"></line>
			<line x1="16" y1="2" x2="16" y2="30" transform="rotate(99 16 16)"></line>
			<line x1="16" y1="2" x2="16" y2="30" transform="rotate(101 16 16)"></line>
			<line x1="16" y1="2" x2="16" y2="30" transform="rotate(102 16 16)"></line>
			<line x1="16" y1="2" x2="16" y2="30" transform="rotate(103 16 16)"></line>
			<line x1="16" y1="2" x2="16" y2="30" transform="rotate(104 16 16)"></line>
			<line x1="16" y1="2" x2="16" y2="30" transform="rotate(106 16 16)"></line>
			<line x1="16" y1="2" x2="16" y2="30" transform="rotate(107 16 16)"></line>
			<line x1="16" y1="2" x2="16" y2="30" transform="rotate(108 16 16)"></line>
			<line x1="16" y1="2" x2="16" y2="30" transform="rotate(109 16 16)"></line>
			<line x1="16" y1="2" x2="16" y2="30" transform="rotate(111 16 16)"></line>
			<line x1="16" y1="2" x2="16" y2="30" transform="rotate(112 16 16)"></line>
			<line x1="16" y1="2" x2="16" y2="30" transform="rotate(113 16 16)"></line>
			<line x1="16" y1="2" x2="16" y2="30" transform="rotate(114 16 16)"></line>
			<line x1="16" y1="2" x2="16" y2="30" transform="rotate(116 16 16)"></line>
			<line x1="16" y1="2" x2="16" y2="30" transform="rotate(117 16 16)"></line>
			<line x1="16" y1="2" x2="16" y2="30" transform="rotate(118 16 16)"></line>
			<line x1="16" y1="2" x2="16" y2="30" transform="rotate(119 16 16)"></line>
			<line x1="16" y1="2" x2="16" y2="30" transform="rotate(121 16 16)"></line>
			<line x1="16" y1="2" x2="16" y2="30" transform="rotate(122 16 16)"></line>
			<line x1="16" y1="2" x2="16" y2="30" transform="rotate(123 16 16)"></line>
			<line x1="16" y1="2" x2="16" y2="30" transform="rotate(124 16 16)"></line>
			<line x1="16" y1="2" x2="16" y2="30" transform="rotate(126 16 16)"></line>
			<line x1="16" y1="2" x2="16" y2="30" transform="rotate(127 16 16)"></line>
			<line x1="16" y1="2" x2="16" y2="30" transform="rotate(128 16 16)"></line>
			<line x1="16" y1="2" x2="16" y2="30" transform="rotate(129 16 16)"></line>
			<line x1="16" y1="2" x2="16" y2="30" transform="rotate(131 16 16)"></line>
			<line x1="16" y1="2" x2="16" y2="30" transform="rotate(132 16 16)"></line>
			<line x1="16" y1="2" x2="16" y2="30" transform="rotate(133 16 16)"></line>
			<line x1="16" y1="2" x2="16" y2="30" transform="rotate(134 16 16)"></line>
			<line x1="16" y1="2" x2="16" y2="30" transform="rotate(136 16 16)"></line>
			<line x1="16" y1="2" x2="16" y2="30" transform="rotate(137 16 16)"></line>
			<line x1="16" y1="2" x2="16" y2="30" transform="rotate(138 16 16)"></line>
			<line x1="16" y1="2" x2="16" y2="30" transform="rotate(139 16 16)"></line>
			<line x1="16" y1="2" x2="16" y2="30" transform="rotate(141 16 16)"></line>
			<line x1="16" y1="2" x2="16" y2="30" transform="rotate(142 16 16)"></line>
			<line x1="16" y1="2" x2="16" y2="30" transform="rotate(143 16 16)"></line>
			<line x1="16" y1="2" x2="16" y2="30" transform="rotate(144 16 16)"></line>
			<line x1="16" y1="2" x2="16" y2="30" transform="rotate(146 16 16)"></line>
			<line x1="16" y1="2" x2="16" y2="30" transform="rotate(147 16 16)"></line>
			<line x1="16" y1="2" x2="16" y2="30" transform="rotate(148 16 16)"></line>
			<line x1="16" y1="2" x2="16" y2="30" transform="rotate(149 16 16)"></line>
			<line x1="16" y1="2" x2="16" y2="30" transform="rotate(151 16 16)"></line>
			<line x1="16" y1="2" x2="16" y2="30" transform="rotate(152 16 16)"></line>
			<line x1="16" y1="2" x2="16" y2="30" transform="rotate(153 16 16)"></line>
			<line x1="16" y1="2" x2="16" y2="30" transform="rotate(154 16 16)"></line>
			<line x1="16" y1="2" x2="16" y2="30" transform="rotate(156 16 16)"></line>
			<line x1="16" y1="2" x2="16" y2="30" transform="rotate(157 16 16)"></line>
			<line x1="16" y1="2" x2="16" y2="30" transform="rotate(158 16 16)"></line>
			<line x1="16" y1="2" x2="16" y2="30" transform="rotate(159 16 16)"></line>
			<line x1="16" y1="2" x2="16" y2="30" transform="rotate(161 16 16)"></line>
			<line x1="16" y1="2" x2="16" y2="30" transform="rotate(162 16 16)"></line>
			<line x1="16" y1="2" x2="16" y2="30" transform="rotate(163 16 16)"></line>
			<line x1="16" y1="2" x2="16" y2="30" transform="rotate(164 16 16)"></line>
			<line x1="16" y1="2" x2="16" y2="30" transform="rotate(166 16 16)"></line>
			<line x1="16" y1="2" x2="16" y2="30" transform="rotate(167 16 16)"></line>
			<line x1="16" y1="2" x2="16" y2="30" transform="rotate(168 16 16)"></line>
			<line x1="16" y1="2" x2="16" y2="30" transform="rotate(169 16 16)"></line>
			<line x1="16" y1="2" x2="16" y2="30" transform="rotate(171 16 16)"></line>
			<line x1="16" y1="2" x2="16" y2="30" transform="rotate(172 16 16)"></line>
			<line x1="16" y1="2" x2="16" y2="30" transform="rotate(173 16 16)"></line>
			<line x1="16" y1="2" x2="16" y2="30" transform="rotate(174 16 16)"></line>
			<line x1="16" y1="2" x2="16" y2="30" transform="rotate(176 16 16)"></line>
			<line x1="16" y1="2" x2="16" y2="30" transform="rotate(177 16 16)"></line>
			<line x1="16" y1="2" x2="16" y2="30" transform="rotate(178 16 16)"></line>
			<line x1="16" y1="2" x2="16" y2="30" transform="rotate(179 16 16)"></line>
		</g>
		<circle cx="16" cy="16" r="11" fill="white"></circle>
		<g stroke="black">
			<g stroke-width="0.07">
				<line x1="16" y1="2" x2="16" y2="30" transform="rotate(5 16 16)"></line>
				<line x1="16" y1="2" x2="16" y2="30" transform="rotate(15 16 16)"></line>
				<line x1="16" y1="2" x2="16" y2="30" transform="rotate(25 16 16)"></line>
				<line x1="16" y1="2" x2="16" y2="30" transform="rotate(35 16 16)"></line>
				<line x1="16" y1="2" x2="16" y2="30" transform="rotate(45 16 16)"></line>
				<line x1="16" y1="2" x2="16" y2="30" transform="rotate(55 16 16)"></line>
				<line x1="16" y1="2" x2="16" y2="30" transform="rotate(65 16 16)"></line>
				<line x1="16" y1="2" x2="16" y2="30" transform="rotate(75 16 16)"></line>
				<line x1="16" y1="2" x2="16" y2="30" transform="rotate(85 16 16)"></line>
				<line x1="16" y1="2" x2="16" y2="30" transform="rotate(95 16 16)"></line>
				<line x1="16" y1="2" x2="16" y2="30" transform="rotate(105 16 16)"></line>
				<line x1="16" y1="2" x2="16" y2="30" transform="rotate(115 16 16)"></line>
				<line x1="16" y1="2" x2="16" y2="30" transform="rotate(125 16 16)"></line>
				<line x1="16" y1="2" x2="16" y2="30" transform="rotate(135 16 16)"></line>
				<line x1="16" y1="2" x2="16" y2="30" transform="rotate(145 16 16)"></line>
				<line x1="16" y1="2" x2="16" y2="30" transform="rotate(155 16 16)"></line>
				<line x1="16" y1="2" x2="16" y2="30" transform="rotate(165 16 16)"></line>
				<line x1="16" y1="2" x2="16" y2="30" transform="rotate(175 16 16)"></line>
			</g>
			<circle cx="16" cy="16" r="10.75" fill="white" stroke="none"></circle>
			<g stroke-width="0.1">
				<line x1="16" y1="2" x2="16" y2="30" transform="rotate(10 16 16)"></line>
				<line x1="16" y1="2" x2="16" y2="30" transform="rotate(20 16 16)"></line>
				<line x1="16" y1="2" x2="16" y2="30" transform="rotate(30 16 16)"></line>
				<line x1="16" y1="2" x2="16" y2="30" transform="rotate(40 16 16)"></line>
				<line x1="16" y1="2" x2="16" y2="30" transform="rotate(50 16 16)"></line>
				<line x1="16" y1="2" x2="16" y2="30" transform="rotate(60 16 16)"></line>
				<line x1="16" y1="2" x2="16" y2="30" transform="rotate(70 16 16)"></line>
				<line x1="16" y1="2" x2="16" y2="30" transform="rotate(80 16 16)"></line>
				<line x1="16" y1="2" x2="16" y2="30" transform="rotate(100 16 16)"></line>
				<line x1="16" y1="2" x2="16" y2="30" transform="rotate(110 16 16)"></line>
				<line x1="16" y1="2" x2="16" y2="30" transform="rotate(120 16 16)"></line>
				<line x1="16" y1="2" x2="16" y2="30" transform="rotate(130 16 16)"></line>
				<line x1="16" y1="2" x2="16" y2="30" transform="rotate(140 16 16)"></line>
				<line x1="16" y1="2" x2="16" y2="30" transform="rotate(150 16 16)"></line>
				<line x1="16" y1="2" x2="16" y2="30" transform="rotate(160 16 16)"></line>
				<line x1="16" y1="2" x2="16" y2="30" transform="rotate(170 16 16)"></line>
			</g>
		</g>
		<circle cx="16" cy="16" r="10.5" fill="white"></circle>
		<line x1="16" y1="2" x2="16" y2="30" stroke="black" stroke-width=".15" transform="rotate(90 16 16)"></line>
		<line x1="16" y1="2" x2="16" y2="30" stroke="black" stroke-width=".15"></line>
		<circle cx="16" cy="16" r="10" fill="white"></circle>


		<circle cx="16" cy="16" r="12.3" stroke="#242424" stroke-width="1.2" fill="none"></circle>
		<g fill="white" text-anchor="middle">
			<g font-size="1.5" font-weight="bold">
				<text x="16" y="4.2">0</text>
				<text x="16" y="4.2" transform="rotate(90 16 16)">90</text>
				<text x="16" y="4.2" transform="rotate(180 16 16)">180</text>
				<text x="16" y="4.2" transform="rotate(270 16 16)">270</text>
			</g>
			<g font-size="1">
				<text x="16" y="4" transform="rotate(10 16 16)">10</text>
				<text x="16" y="4" transform="rotate(20 16 16)">20</text>
				<text x="16" y="4" transform="rotate(30 16 16)">30</text>
				<text x="16" y="4" transform="rotate(40 16 16)">40</text>
				<text x="16" y="4" transform="rotate(50 16 16)">50</text>
				<text x="16" y="4" transform="rotate(60 16 16)">60</text>
				<text x="16" y="4" transform="rotate(70 16 16)">70</text>
				<text x="16" y="4" transform="rotate(80 16 16)">80</text>

				<text x="16" y="4" transform="rotate(100 16 16)">100</text>
				<text x="16" y="4" transform="rotate(110 16 16)">110</text>
				<text x="16" y="4" transform="rotate(120 16 16)">120</text>
				<text x="16" y="4" transform="rotate(130 16 16)">130</text>
				<text x="16" y="4" transform="rotate(140 16 16)">140</text>
				<text x="16" y="4" transform="rotate(150 16 16)">150</text>
				<text x="16" y="4" transform="rotate(160 16 16)">160</text>
				<text x="16" y="4" transform="rotate(170 16 16)">170</text>

				<text x="16" y="4" transform="rotate(190 16 16)">190</text>
				<text x="16" y="4" transform="rotate(200 16 16)">200</text>
				<text x="16" y="4" transform="rotate(210 16 16)">210</text>
				<text x="16" y="4" transform="rotate(220 16 16)">220</text>
				<text x="16" y="4" transform="rotate(230 16 16)">230</text>
				<text x="16" y="4" transform="rotate(240 16 16)">240</text>
				<text x="16" y="4" transform="rotate(250 16 16)">250</text>
				<text x="16" y="4" transform="rotate(260 16 16)">260</text>

				<text x="16" y="4" transform="rotate(280 16 16)">280</text>
				<text x="16" y="4" transform="rotate(290 16 16)">290</text>
				<text x="16" y="4" transform="rotate(300 16 16)">300</text>
				<text x="16" y="4" transform="rotate(310 16 16)">310</text>
				<text x="16" y="4" transform="rotate(320 16 16)">320</text>
				<text x="16" y="4" transform="rotate(330 16 16)">330</text>
				<text x="16" y="4" transform="rotate(340 16 16)">340</text>
				<text x="16" y="4" transform="rotate(350 16 16)">350</text>
			</g>
		</g>
	</g>
	<text></text>


	<path id="needle" fill="#ff5252" d="m16,5s4,8.79,4,11-1.7909,4-4,4-4-1.79-4-4,4-11,4-11zm2,11c0-1.1046-0.89543-2-2-2s-2,0.89543-2,2,0.89543,2,2,2,2-0.89543,2-2z" />
	<circle cx="16" cy="16" r="14" stroke="#009688" stroke-width="1.5" fill="none"></circle>
</svg>
