<svg xmlns="http://www.w3.org/2000/svg" width="512" height="512">
  <path fill="#212121" d="M223.27 507.56c-74.76-13.24-135.3-66-157.66-137.46-8.4-26.94-8.1-20.2-8.1-187.15 0-84.54.5-156.1 1.2-159.05.7-3.13 3.36-7.64 6.4-10.88 10.17-10.64.2-10.1 187.37-10.06 91.63.03 170.95.6 176.26 1.3 11.8 1.5 18.5 6.1 22.9 15.58l3.04 6.56v155.84c0 146.7-.2 156.55-2.7 167.9-8.74 39.84-26.7 72.9-54.93 101.15-27.85 27.8-61 45.9-100.4 54.8-13.66 3.1-58.9 3.9-73.3 1.4zm-91.1-353.92c22.17-17.96 53.3-32.46 84.3-39.25 16.75-3.7 62.3-3.7 79.05 0 32.13 7 60.4 20.3 85.05 39.9 5.43 4.3 10.37 7.3 10.98 6.7.62-.6.95-22.87.74-49.4l-.4-48.3H120.1l-.37 47.64c-.2 26.2-.02 48.54.4 49.6.82 2.2.47 2.4 12.1-7.03z"/>
 
  <path fill="#009688" d="M418.2 310c0 89.58-72.62 162.2-162.2 162.2-89.58 0-162.2-72.62-162.2-162.2 0-89.58 72.62-162.2 162.2-162.2 89.58 0 162.2 72.62 162.2 162.2z"/>

  <path fill="#e84e40" stroke="#e84e40" stroke-width="20" d="M256 350.9c-22.4 0-40.55-18.07-40.55-40.55 0-27.03 40.55-121.65 40.55-121.65s40.55 94.62 40.55 121.65c0 22.4-18.2 40.55-40.55 40.55z"/>
  <path fill="#212121" d="M255.95 283.32c-14.93 0-27.03 12.1-27.03 27.03 0 14.93 12.1 27.04 27.03 27.04 14.93 0 27.04-12.2 27.04-27.1s-12.2-27.1-27.1-27.1z"/>
</svg>
